<?xml version="1.0" standalone="no"?>
<!DOCTYPE svg PUBLIC "-//W3C//DTD SVG 20010904//EN"
 "http://www.w3.org/TR/2001/REC-SVG-20010904/DTD/svg10.dtd">
<svg version="1.0" xmlns="http://www.w3.org/2000/svg"
 width="286.000000pt" height="112.000000pt" viewBox="0 0 286.000000 112.000000"
 preserveAspectRatio="xMidYMid meet">

<g transform="translate(0.000000,112.000000) scale(0.100000,-0.100000)"
fill="#000000" stroke="none">
<path d="M0 560 l0 -560 1430 0 1430 0 0 560 0 560 -1430 0 -1430 0 0 -560z
m925 170 c42 -26 44 -42 9 -65 -23 -15 -27 -15 -49 -1 -39 25 -108 21 -137 -9
-45 -45 -45 -115 -1 -160 31 -30 99 -34 138 -9 23 15 27 15 50 0 14 -9 25 -22
25 -29 0 -20 -63 -56 -111 -63 -187 -26 -301 188 -166 314 58 55 172 65 242
22z m591 19 c53 -14 59 -22 44 -58 l-11 -29 -50 16 c-58 19 -102 9 -107 -24
-3 -23 14 -32 101 -54 57 -15 97 -57 97 -102 0 -46 -54 -94 -114 -103 -52 -8
-141 7 -171 29 -16 12 -16 15 -1 44 16 30 16 30 47 15 71 -35 162 -22 146 21
-7 18 -6 17 -91 41 -74 21 -106 51 -106 102 1 88 95 132 216 102z m790 -14
c70 -35 99 -82 99 -160 0 -74 -27 -121 -90 -157 -51 -29 -142 -31 -198 -4 -84
41 -120 153 -77 241 24 49 48 69 108 91 56 20 103 17 158 -11z m-1939 -5 c43
-26 54 -80 25 -119 l-20 -27 24 -21 c47 -42 39 -108 -18 -143 -28 -17 -51 -20
-155 -20 l-123 0 0 175 0 175 118 0 c98 0 122 -3 149 -20z m203 -155 l0 -175
-45 0 -45 0 0 175 0 175 45 0 45 0 0 -175z m530 0 l0 -175 -45 0 -45 0 0 175
0 175 45 0 45 0 0 -175z m622 108 l3 -68 75 0 75 0 3 68 3 67 39 0 40 0 0
-175 0 -175 -40 0 -40 0 0 70 0 70 -80 0 -80 0 0 -70 0 -70 -40 0 -40 0 0 175
0 175 40 0 39 0 3 -67z m986 48 c44 -23 62 -55 62 -114 0 -77 -46 -114 -155
-124 l-65 -6 0 -43 0 -44 -45 0 -45 0 0 175 0 175 105 0 c85 0 113 -4 143 -19z"/>
<path d="M2184 679 c-49 -14 -69 -43 -69 -105 0 -60 19 -88 70 -102 97 -27
169 77 115 166 -11 17 -21 32 -22 32 -2 0 -17 4 -33 8 -17 5 -44 5 -61 1z"/>
<path d="M190 650 l0 -40 53 0 c56 0 77 12 77 42 0 22 -37 38 -91 38 -39 0
-39 0 -39 -40z"/>
<path d="M190 505 l0 -45 54 0 c62 0 102 23 90 53 -9 24 -44 37 -100 37 l-44
0 0 -45z"/>
<path d="M2550 619 l0 -62 51 6 c63 8 79 20 79 63 0 41 -21 54 -84 54 l-46 0
0 -61z"/>
</g>
</svg>
